<svg id="SvgjsSvg1001" width="288" height="288" xmlns="http://www.w3.org/2000/svg" version="1.1" xmlns:xlink="http://www.w3.org/1999/xlink" xmlns:svgjs="http://svgjs.com/svgjs"><defs id="SvgjsDefs1002"></defs><g id="SvgjsG1008" transform="matrix(1,0,0,1,0,0)"><svg xmlns="http://www.w3.org/2000/svg" class="ionicon" viewBox="0 0 512 512" width="288" height="288"><path d="M256 56C145.72 56 56 145.72 56 256s89.72 200 200 200 200-89.72 200-200S366.28 56 256 56zm0 82a26 26 0 11-26 26 26 26 0 0126-26zm48 226h-88a16 16 0 010-32h28v-88h-16a16 16 0 010-32h32a16 16 0 0116 16v104h28a16 16 0 010 32z" fill="#ffffff" class="color000 svgShape"></path></svg></g></svg>